<svg width="20" height="20">
    <g transform="translate(0,-313.77081)">
        <g aria-label="₦" transform="matrix(0.15190292,0,0,0.12424588,-14.136222,260.81457)">
            <path d="m 141.39258,489.70312 -7.5,-19.3125 v 19.3125 z m 9.65625,25.3125 -5.25,-13.78125 h -11.90625 v 13.78125 z m -35.53125,-76.875 h 25.5 l 19.875,51.5625 h 21.5625 v -51.5625 h 18.375 v 51.5625 h 15.1875 v 11.53125 h -15.1875 v 13.78125 h 15.1875 v 11.53125 h -15.1875 v 51.5625 h -25.5 l -19.875,-51.5625 h -21.5625 v 51.5625 h -18.375 v -51.5625 h -15.1875 v -11.53125 h 15.1875 v -13.78125 h -15.1875 v -11.53125 h 15.1875 z m 49.78125,63.09375 5.25,13.78125 h 11.90625 v -13.78125 z m 9.65625,25.3125 7.5,19.3125 v -19.3125 z"/>
        </g>
    </g>
</svg>
