<?xml version="1.0" encoding="UTF-8" standalone="no"?>
<!-- Created with Inkscape (http://www.inkscape.org/) -->

<svg
   xmlns:dc="http://purl.org/dc/elements/1.1/"
   xmlns:cc="http://creativecommons.org/ns#"
   xmlns:rdf="http://www.w3.org/1999/02/22-rdf-syntax-ns#"
   xmlns:svg="http://www.w3.org/2000/svg"
   xmlns="http://www.w3.org/2000/svg"
   xmlns:sodipodi="http://sodipodi.sourceforge.net/DTD/sodipodi-0.dtd"
   xmlns:inkscape="http://www.inkscape.org/namespaces/inkscape"
   width="25"
   height="25"
   viewBox="0 0 25 25"
   version="1.1"
   id="svg8"
   inkscape:version="0.92.3 (2405546, 2018-03-11)"
   sodipodi:docname="Settings.svg">
  <defs
     id="defs2" />
  <sodipodi:namedview
     id="base"
     pagecolor="#ffffff"
     bordercolor="#666666"
     borderopacity="1.0"
     inkscape:pageopacity="0.0"
     inkscape:pageshadow="2"
     inkscape:zoom="7.9195959"
     inkscape:cx="6.4465056"
     inkscape:cy="14.125634"
     inkscape:document-units="px"
     inkscape:current-layer="layer1"
     showgrid="false"
     units="px"
     inkscape:window-width="1110"
     inkscape:window-height="701"
     inkscape:window-x="-9"
     inkscape:window-y="2"
     inkscape:window-maximized="0" />
  <metadata
     id="metadata5">
    <rdf:RDF>
      <cc:Work
         rdf:about="">
        <dc:format>image/svg+xml</dc:format>
        <dc:type
           rdf:resource="http://purl.org/dc/dcmitype/StillImage" />
        <dc:title></dc:title>
      </cc:Work>
    </rdf:RDF>
  </metadata>
  <g
     inkscape:label="Layer 1"
     inkscape:groupmode="layer"
     id="layer1"
     transform="translate(0,-290.38541)">
    <path
       id="path4520"
       style="opacity:1;vector-effect:none;fill:#000012;fill-opacity:1;fill-rule:evenodd;stroke-width:0.248;stroke-linecap:butt;stroke-linejoin:miter;stroke-miterlimit:4;stroke-dasharray:none;stroke-dashoffset:0;stroke-opacity:1;stroke:#000000"
       d="m 17.352481,303.03683 a 4.7735214,4.9624624 0 0 1 -4.773522,4.96247 4.7735214,4.9624624 0 0 1 -4.773521,-4.96247 4.7735214,4.9624624 0 0 1 4.773521,-4.96246 4.7735214,4.9624624 0 0 1 4.773522,4.96246 z m -5.732103,-10.66065 h 2.828954 l 0.353152,2.79161 2.456197,1.2724 2.714537,-1.67637 1.613676,1.67637 -2.270662,1.96954 0.696414,2.86048 2.933449,0.44194 0.06313,2.57968 -2.80718,0.11083 -1.191573,2.88431 1.844443,2.00309 -1.501194,1.78013 -2.37129,-1.42781 -2.724455,1.50243 -0.366956,2.62736 h -3.13469 l -0.290037,-2.81677 -2.1030299,-1.53333 -2.499493,1.94702 -1.7123695,-1.81105 1.8780666,-2.61765 -1.1422243,-2.36379 -3.0577849,-0.39426 0.037493,-2.50684 3.1484987,-0.75762 1.2626907,-2.41853 -1.9213633,-2.34128 1.8405728,-1.81943 2.4619993,1.86712 2.3712898,-1.33555 z" />
  </g>
</svg>
