<?xml version="1.0" encoding="UTF-8" standalone="no"?>
<svg
   xmlns:dc="http://purl.org/dc/elements/1.1/"
   xmlns:cc="http://creativecommons.org/ns#"
   xmlns:rdf="http://www.w3.org/1999/02/22-rdf-syntax-ns#"
   xmlns:svg="http://www.w3.org/2000/svg"
   xmlns="http://www.w3.org/2000/svg"
   xmlns:sodipodi="http://sodipodi.sourceforge.net/DTD/sodipodi-0.dtd"
   xmlns:inkscape="http://www.inkscape.org/namespaces/inkscape"
   width="25"
   height="25"
   version="1.1"
   id="svg8"
   sodipodi:docname="Transactions.svg"
   inkscape:version="0.92.3 (2405546, 2018-03-11)">
  <metadata
     id="metadata14">
    <rdf:RDF>
      <cc:Work
         rdf:about="">
        <dc:format>image/svg+xml</dc:format>
        <dc:type
           rdf:resource="http://purl.org/dc/dcmitype/StillImage" />
        <dc:title></dc:title>
      </cc:Work>
    </rdf:RDF>
  </metadata>
  <defs
     id="defs12" />
  <sodipodi:namedview
     pagecolor="#ffffff"
     bordercolor="#666666"
     borderopacity="1"
     objecttolerance="10"
     gridtolerance="10"
     guidetolerance="10"
     inkscape:pageopacity="0"
     inkscape:pageshadow="2"
     inkscape:window-width="929"
     inkscape:window-height="696"
     id="namedview10"
     showgrid="false"
     inkscape:zoom="11.8"
     inkscape:cx="13.592285"
     inkscape:cy="10"
     inkscape:window-x="430"
     inkscape:window-y="3"
     inkscape:window-maximized="0"
     inkscape:current-layer="svg8" />
  <g
     transform="matrix(0.61957195,0,0,0.68379799,6.1408624,-214.8403)"
     id="g6">
    <g
       aria-label="₦"
       transform="matrix(0.15190292,0,0,0.12424588,-14.136222,260.81457)"
       id="g4">
      <path
         d="m 141.39258,489.70312 -7.5,-19.3125 v 19.3125 z m 9.65625,25.3125 -5.25,-13.78125 h -11.90625 v 13.78125 z m -35.53125,-76.875 h 25.5 l 19.875,51.5625 h 21.5625 v -51.5625 h 18.375 v 51.5625 h 15.1875 v 11.53125 h -15.1875 v 13.78125 h 15.1875 v 11.53125 h -15.1875 v 51.5625 h -25.5 l -19.875,-51.5625 h -21.5625 v 51.5625 h -18.375 v -51.5625 h -15.1875 v -11.53125 h 15.1875 v -13.78125 h -15.1875 v -11.53125 h 15.1875 z m 49.78125,63.09375 5.25,13.78125 h 11.90625 v -13.78125 z m 9.65625,25.3125 7.5,19.3125 v -19.3125 z"
         id="path2"
         inkscape:connector-curvature="0" />
    </g>
  </g>
  <path
     style="fill:#000000;fill-opacity:1;stroke:#000000;stroke-width:0.32916668;stroke-linecap:butt;stroke-linejoin:miter;stroke-miterlimit:4;stroke-dasharray:none;stroke-opacity:1"
     d="m 3.236104,15.071261 2e-7,0.799923 15.9080138,-0.164038 0.05784,1.825391 2.545283,-2.241841 -2.605207,-2.115239 -2e-6,1.745993 z"
     id="path4524"
     inkscape:connector-curvature="0"
     sodipodi:nodetypes="cccccccc" />
  <path
     style="fill:#000000;fill-opacity:1;stroke:#000000;stroke-width:0.32916668;stroke-linecap:butt;stroke-linejoin:miter;stroke-miterlimit:4;stroke-dasharray:none;stroke-opacity:1"
     d="m 21.650807,21.428724 0.0081,-0.799882 -15.9088589,0.0033 -0.039392,-1.825882 -2.5678058,2.216008 2.5837005,2.141456 0.017645,-1.745904 z"
     id="path4524-2"
     inkscape:connector-curvature="0"
     sodipodi:nodetypes="cccccccc" />
</svg>
